<?xml version="1.0" encoding="utf-8"?>
<!-- Generator: Adobe Illustrator 18.0.0, SVG Export Plug-In . SVG Version: 6.00 Build 0)  -->
<!DOCTYPE svg PUBLIC "-//W3C//DTD SVG 1.1//EN" "http://www.w3.org/Graphics/SVG/1.1/DTD/svg11.dtd">
<svg version="1.1" id="图层_1" xmlns="http://www.w3.org/2000/svg" xmlns:xlink="http://www.w3.org/1999/xlink" x="0px" y="0px"
	 viewBox="0 0 64 64" enable-background="new 0 0 64 64" xml:space="preserve">
<g>
	<path fill="#C63926" d="M59.7,18.3c0.5-2-0.7-3.6-2.2-4.6l-1.1-0.6c-2.4-2.1-4.1,1.5-6.5,1.4c-3.9-0.2-8.2-0.2-12,0.6
		c-3.7,0.7-6.9,2.5-9.8,5.2c-2.8,3.1-5,6.4-6,10.2c-1.1,3.5-1.8,7.2-2.2,11.1c-1.2,1.4-2,3.2-1.5,5.1c1.1,2,3,3.6,5.4,3.5
		c0.3,0.1,0.6-0.3,0.8,0c1.8-0.7,3.9-0.8,5.9-0.4c2.7,1,5.7,1.6,8.8,1.6c3.1-0.5,6.2-1,9-2.4c3.5-2.6,6.4-6.1,8.1-9.9
		c2.3-4.4,3.7-9,3.7-14.4C60.3,22.5,58.7,20.5,59.7,18.3z M57.6,32.9c-1,3.3-2.7,6.4-4.4,9.4C51,45,48.7,48,45.4,48.9
		c-2.8,0.7-5.7,1.7-8.8,1.2c-2.2-0.2-4.3-0.7-6.3-1.5c-2-0.4-4.5-0.2-6.5,0.4c-1.8,0.2-3.5-1-4.3-2.6c0-0.1,0-0.2,0-0.3
		c-0.2-1.7,1-2.9,1.7-4.2c0.4-3.7,1-7.3,2.1-10.7c1.1-4.1,3.5-7.6,6.6-10.7c5.2-4.6,12.4-5.1,19.5-4.8c1.4,0.2,2.8-0.3,3.9-1.2
		c0.8-0.5,2-1.5,2.8-0.3c0.1,0,0.2,0.1,0.3,0.1c1,0.4,2.1,1.3,2.3,2.4c0.1,1.5-0.8,2.6-0.3,4.1C59.3,24.7,58.6,29.2,57.6,32.9z
		 M56.8,21.1c0.1,0.3,0.2,0.8-0.1,1c-0.6,0-0.3-0.8-0.7-1.1c0-0.2,0.1-0.3,0.2-0.4C56.6,20.7,56.8,20.9,56.8,21.1L56.8,21.1z
		 M57.4,24.5c0,0.4,0.2,1-0.2,1.2c-0.6-0.3-0.4-1.2-0.4-1.7c0.1,0,0.2,0,0.3,0.1l0-0.2C57.4,24,57.3,24.3,57.4,24.5L57.4,24.5z
		 M55.5,27.5c0,0.2,0,0.5-0.2,0.6c-0.4,0-0.3-0.4-0.5-0.6C54.8,26.9,55.5,27.2,55.5,27.5L55.5,27.5z M57.4,27.7c0,0.6,0,1.3-0.5,1.6
		c-0.1-0.1-0.2-0.1-0.3-0.2C56.8,28.6,56.3,27.1,57.4,27.7L57.4,27.7z M55,30.2c-0.1,0.3-0.3,0.6-0.6,0.8c-0.3,0-0.3-0.3-0.2-0.5
		c0.2-0.2,0.2-0.9,0.7-0.6L55,30.2L55,30.2z M56.2,31.7c0.2,0.6-0.2,1.1-0.7,1.5c-0.1,0-0.2,0-0.3-0.2c0.2-0.5,0.3-1,0.4-1.5
		C55.9,31.5,56,31.7,56.2,31.7L56.2,31.7z M53.5,33.3c0,0.5-0.3,0.9-0.7,1.3c-0.2,0-0.3,0-0.4-0.2c0.1-0.5,0.2-1,0.5-1.4
		C53.2,33,53.4,33.1,53.5,33.3L53.5,33.3z M54.8,35.9c-0.1,0.6-0.4,1.1-0.9,1.5c-0.1,0-0.2-0.1-0.3-0.2c0.2-0.5,0.4-1.2,0.8-1.6
		C54.6,35.6,54.7,35.8,54.8,35.9L54.8,35.9z M51.5,37.5c0,0.5-0.4,1-0.8,1.5c-0.2,0-0.2-0.1-0.3-0.2c0-0.6,0.4-1.1,0.6-1.5
		C51.3,37.2,51.5,37.3,51.5,37.5L51.5,37.5z M48.9,38.5c-0.2,0.3-0.3,0.7-0.6,0.9c-0.2,0-0.3-0.2-0.5-0.1c0.5-0.4,0.3-1.8,1.1-1.3
		V38.5L48.9,38.5z M53.1,39.7c-0.1,0.6-0.7,1.1-1.1,1.5c-0.1,0-0.2-0.1-0.3-0.2c0.1-0.6,0.5-1.1,0.9-1.6
		C52.8,39.5,53,39.5,53.1,39.7L53.1,39.7z M42.5,42c0.1,0.1,0,0.3,0,0.4c-0.2,0.3-0.5,0.4-0.9,0.6c-0.2,0-0.4-0.1-0.4-0.3
		c0-0.6,0.7-0.3,1.1-0.7H42.5L42.5,42z M47.4,42.6c-0.4,0.5-0.9,1-1.6,0.8c-0.2-0.1-0.3-0.3-0.2-0.6c0.2-0.2,0.6,0,0.8-0.2
		C46.7,42.6,47.4,41.9,47.4,42.6L47.4,42.6z M50,43.9L50,44.3c-0.5,0.2-0.9,0.9-1.5,0.9c-0.1-0.1-0.2-0.2-0.2-0.4
		C48.8,44.4,49.4,43.3,50,43.9L50,43.9z M32.5,44.3c0,0.2-0.2,0.2-0.3,0.3c-0.2,0-0.4-0.1-0.6-0.3c0-0.2,0-0.3,0.1-0.4
		C32.1,44,32.5,43.9,32.5,44.3L32.5,44.3z M36.4,45.1c-0.2,0.2-0.5,0.4-0.8,0.4c-0.3,0-0.7,0-0.7-0.4c0-0.2,0-0.4,0.2-0.4
		c0.4,0.2,0.9,0.1,1.3-0.1C36.5,44.7,36.4,45,36.4,45.1L36.4,45.1z M23,46.2c0.2,0.4,0.2,1,0,1.4c-0.5,0.2-0.3-0.5-0.5-0.8
		c-0.2-0.4-0.6-0.8-1-1c-0.3,0-0.8,0-0.8-0.4c0-0.4,0.4-0.2,0.6-0.4C22,45.1,22.7,45.5,23,46.2L23,46.2z M42.3,45.2
		c0.2,0.4-0.4,0.5-0.6,0.7c-0.3,0-0.7,0.1-0.9-0.2c-0.1-0.3,0.1-0.5,0.4-0.4C41.5,45.4,41.9,45.1,42.3,45.2L42.3,45.2z M31.3,45.6
		c0.2,0.1,0,0.2,0.1,0.4c-0.3,0.2-0.7,0.2-1,0c-0.2,0-0.2-0.3-0.3-0.4c0-0.1,0-0.3,0.2-0.3C30.7,45.1,30.8,45.8,31.3,45.6L31.3,45.6
		z M46.4,46.4c-0.5,0.5-1.1,0.5-1.7,0.8c-0.2,0-0.4-0.1-0.5-0.3c-0.2-0.4,0.4-0.5,0.6-0.6c0.5-0.1,1.1-0.3,1.6-0.2L46.4,46.4
		L46.4,46.4z M35.3,47.3c0.2,0.2-0.1,0.4-0.3,0.5c-0.4,0-0.7,0-1-0.2c-0.2-0.2-0.2-0.4-0.2-0.6C34.4,46.7,34.7,47.5,35.3,47.3
		L35.3,47.3z"/>
	<path fill="#C63926" d="M23.1,23.5c-1,2.3-3.1,4.1-4.4,6.3c-0.2,0.2-0.1,0.5,0.1,0.6c0.8,0.3,1.4,0.7,2.3,0.7
		c0.3-0.1,0.6-0.1,1-0.1c0-0.1,0.1-0.3,0.1-0.4c0-0.1,0.1-0.3,0.1-0.4c-0.5,0-1.1,0.1-1.6,0.1c-0.4,0-0.7-0.2-1.1-0.3v-0.2
		c1.3-2,3.3-3.6,4.1-5.8c0.3-0.4,0.6-0.7,1-0.8c0.4-0.1,0.7,0.1,0.9,0.2c0.1-0.2,0.3-0.4,0.4-0.6c-0.2-0.2-0.4-0.3-0.7-0.4
		C24.4,22.1,23.6,22.8,23.1,23.5z"/>
	<path fill="#C63926" d="M21.7,32c-0.2,0-0.3-0.1-0.5-0.1c-0.5,0-1-0.4-1.4-0.2c-0.2,0.2-0.4,0.4-0.3,0.7c0.7,1.5,0.6,3.2,1,4.9
		c0.1-0.8,0.3-1.5,0.4-2.3c-0.1-0.9-0.3-1.7-0.6-2.5c0.4,0,0.8,0.1,1.2,0.1C21.6,32.4,21.6,32.2,21.7,32z"/>
	<path fill="#C63926" d="M17.5,42.3c0.7,0.2,1.4-0.2,1.7-0.8c0.5-2.2-0.2-4.2-0.2-6.4c0.2-0.5,0-1-0.1-1.6c-0.3-0.4-0.6-1.2-1.3-0.8
		c-1.6,2.4-4.1,4.1-5.8,6.4c-0.1,0.5,0.2,1,0.4,1.4C13.7,41.9,15.7,41.8,17.5,42.3z M12.8,39.2c1.8-1.9,3.8-3.8,5.3-5.7
		c0.3,0.5,0.2,1.2,0.2,1.8c0,1.8,0.4,3.6,0.4,5.5c-0.1,0.3-0.4,0.6-0.7,0.7c-0.4,0-0.8,0-1.1-0.2c-1.4-0.2-3.1-0.4-4.1-1.6
		C12.6,39.5,12.7,39.3,12.8,39.2z"/>
	<path fill="#C63926" d="M18.8,43.3c-0.8,0-1.6,0-2.3-0.2c-0.8-0.4-1.7-0.4-2.5-0.7c-2.1-1-4.1-2-5.9-3.6c-1.6-1.8-2.2-4-2.8-6.2
		C5,29,6.6,26,8.3,23.1c1.2-1.6,2.8-2.6,4.5-3.3c0.7-0.6,1.7-0.4,2.5-0.8c1.5-0.3,2.8-0.4,4.4-0.2c2.4,0.3,4.5,1.1,6.5,2.3
		c0.3,0.2,0.5,0.4,0.8,0.7c0.2-0.3,0.5-0.6,0.8-0.9c-0.5-0.5-1-0.9-1.6-1.2c-2.4-1.3-5.1-2.2-8-2.2c-0.7,0.2-1.5-0.1-2.2,0.4
		c-1,0-2,0.3-3,0.5c-1,0.7-2.2,0.8-3.1,1.6c-2.6,1.7-3.7,4.5-4.8,7c-0.7,1.9-1.3,4.3-0.7,6.4c0.1,0.5,0.1,1.2,0.5,1.4
		c0,0.7,0.6,1.3,0.6,2C6,38,6.8,39.2,8,40.3c1.4,1,2.8,2.1,4.2,2.8c0.4,0.5,1.1,0.4,1.6,0.7c1.4,0.6,2.9,1,4.6,1
		C18.4,44.2,18.6,43.7,18.8,43.3z"/>
	<path fill="#C63926" d="M10.5,22.5c-1.2,0.4-1.8,1.7-2.4,2.7c-0.3,1.2-1.6,2.8-0.2,3.9c0.3,0.4,0.9,0.2,1.2,0.6l4.5,0.7l0.8,0.2
		c0.7-0.1,1.4,0.4,2.2,0.1c0.4-0.2,0.8-0.5,0.8-1c-0.9-2.6-3.3-4.7-5.3-6.7C11.6,22.6,11,22.5,10.5,22.5z M16.5,29.7
		c0,0.2-0.2,0.2-0.3,0.4c-0.8,0.1-1.4-0.2-2.1-0.4c-1.8-0.4-3.6-0.7-5.5-1c-0.2-0.1-0.5-0.3-0.6-0.6C8.2,26.4,9,25,10,23.6
		c0.4,0.2,0.7-0.7,1.2-0.2l1.3,1.2C13.7,26.3,15.8,27.7,16.5,29.7z"/>
	<path fill="#C63926" d="M10,38c0.6,0.2,1.2-0.2,1.7-0.3c1.8-1.3,3.1-3.1,4.8-4.4l0.2-0.5c0-0.6,0.3-1.2-0.3-1.5
		c-0.7,0-1.6,0.2-2.3,0c-2.2,0.1-4.1-1-6.3-0.6c-0.6,0.2-0.7,0.8-0.9,1.3C6.6,34.6,8.1,36.8,10,38z M7.8,31.8
		c0.6-0.7,1.6-0.2,2.4-0.2C12,32,14,32.1,16,32.1c0.1,0.7-0.8,1.1-1.2,1.6c-1.3,0.9-2.2,2.4-3.6,3.3c-0.4,0.1-0.8,0.4-1.2,0.2
		C8.5,35.9,7,34,7.8,31.8z"/>
	<path fill="#C63926" d="M14,21.2c-0.3,0.5,0.1,1,0.2,1.5c1.2,1.5,2.1,3.1,2.9,4.8c0.4,0.6,0.3,1.4,0.8,1.9c0.3-0.1,0.7,0,0.9-0.4
		c0.4-2.4,2.2-4.1,3.2-6.2c0.2-0.8-0.2-1.5-0.7-2C19.1,19.9,15.8,19.4,14,21.2z M18.9,26.2l-0.8,2c-1-1.9-1.6-4-3.2-5.7
		c-0.1-0.3-0.2-0.5-0.2-0.9c1.6-1.6,4.3-1,6.2-0.3c0.2,0.2,0.4,0.5,0.4,0.8C20.7,23.7,19.7,24.9,18.9,26.2z"/>
</g>
</svg>
