<?xml version="1.0" encoding="utf-8"?>
<!-- Generator: Adobe Illustrator 18.0.0, SVG Export Plug-In . SVG Version: 6.00 Build 0)  -->
<!DOCTYPE svg PUBLIC "-//W3C//DTD SVG 1.1//EN" "http://www.w3.org/Graphics/SVG/1.1/DTD/svg11.dtd">
<svg version="1.1" id="图层_1" xmlns="http://www.w3.org/2000/svg" xmlns:xlink="http://www.w3.org/1999/xlink" x="0px" y="0px"
	 viewBox="0 0 64 64" enable-background="new 0 0 64 64" xml:space="preserve">
<g>
	<path fill="#BBDB52" d="M32,4.1c15.5,0,28,12.5,28,27.9S47.5,59.9,32,59.9S4,47.4,4,32S16.5,4.1,32,4.1z"/>
	<g>
		<g>
			<path fill="#EEFBC4" d="M35.5,27.6c3.6,0.5,10,0.5,10,0.5l-2-1.8C43.5,26.3,37.7,26.8,35.5,27.6C35.5,27.5,35.5,27.6,35.5,27.6
				L35.5,27.6z M35.5,27.5L35.5,27.5C35.5,27.6,35.5,27.5,35.5,27.5L35.5,27.5z M35.4,27.5c-2-2.4-7.3-7.4-7.3-7.4l-2.2,0.1
				C25.9,20.2,31.8,25.1,35.4,27.5L35.4,27.5L35.4,27.5z M35.4,27.5L35.4,27.5L35.4,27.5L35.4,27.5z M47.9,31.8l-0.7-1.6
				c0,0-8-2-11.7-2.6C39.6,29.2,47.9,31.8,47.9,31.8z M34.1,21.4l-2.9-0.8c0,0,2.3,4.6,4.2,7C35.6,25.7,34.1,21.4,34.1,21.4z
				 M35.5,27.6C35.5,27.5,35.5,27.5,35.5,27.6C35.5,27.5,35.5,27.5,35.5,27.6c2.2-0.8,5-3.3,5-3.3s-1.8-1-2.8-1.5h-0.1
				C37.6,22.8,35.6,25.7,35.5,27.6C35.4,27.5,35.5,27.6,35.5,27.6L35.5,27.6z M35.4,27.5L35.4,27.5L35.4,27.5
				C31.9,25.2,24,20.8,24,20.8s-0.7,0.6-0.9,0.9l0,0C23.1,21.7,31.3,25.9,35.4,27.5C35.4,27.6,35.4,27.6,35.4,27.5
				C35.4,27.6,35.4,27.6,35.4,27.5z M35.5,27.6L35.5,27.6L35.5,27.6c3.5,2.4,11.4,6.7,11.4,6.7l0.9-1l0,0
				C43.7,31.2,39.6,29.2,35.5,27.6L35.5,27.6L35.5,27.6z M23.7,25c0,0,8,2,11.7,2.6C31.3,25.9,23,23.4,23,23.4L23.7,25z M36.8,33.8
				l2.9,0.8c0,0-2.3-4.6-4.2-7C35.3,29.4,36.8,33.8,36.8,33.8z M35.5,27.6c2,2.4,7.3,7.4,7.3,7.4l2.2-0.1C45,34.9,39.1,30,35.5,27.6
				L35.5,27.6L35.5,27.6z M35.5,27.6L35.5,27.6L35.5,27.6L35.5,27.6z M35.4,27.6L35.4,27.6L35.4,27.6L35.4,27.6z M35.4,27.5
				c-3.6-0.5-10-0.5-10-0.5l2,1.8C27.4,28.8,33.2,28.3,35.4,27.5C35.4,27.6,35.4,27.6,35.4,27.5C35.4,27.6,35.4,27.6,35.4,27.5z
				 M35.4,27.6L35.4,27.6L35.4,27.6c-2.2,0.8-5,3.3-5,3.3s1.8,1,2.8,1.5h0.1C33.3,32.4,35.3,29.4,35.4,27.6
				C35.5,27.6,35.5,27.6,35.4,27.6L35.4,27.6z M35.4,27.6L35.4,27.6L35.4,27.6L35.4,27.6L35.4,27.6z M35.5,27.6L35.5,27.6L35.5,27.6
				L35.5,27.6z M35.5,27.6L35.5,27.6L35.5,27.6L35.5,27.6L35.5,27.6z M35.5,27.6L35.5,27.6L35.5,27.6L35.5,27.6L35.5,27.6L35.5,27.6
				L35.5,27.6z M35.5,27.6L35.5,27.6L35.5,27.6L35.5,27.6L35.5,27.6z M35.5,27.6L35.5,27.6L35.5,27.6L35.5,27.6L35.5,27.6z
				 M35.4,27.6L35.4,27.6L35.4,27.6L35.4,27.6z M35.4,27.6L35.4,27.6L35.4,27.6L35.4,27.6L35.4,27.6z M35.5,27.6L35.5,27.6
				L35.5,27.6L35.5,27.6L35.5,27.6z M35.5,27.6L35.5,27.6L35.5,27.6L35.5,27.6z M35.4,27.5L35.4,27.5L35.4,27.5L35.4,27.5z
				 M35.5,27.6L35.5,27.6L35.5,27.6L35.5,27.6z M35.5,27.6L35.5,27.6L35.5,27.6L35.5,27.6z M35.5,27.6L35.5,27.6L35.5,27.6
				L35.5,27.6L35.5,27.6L35.5,27.6L35.5,27.6z M35.5,27.6L35.5,27.6L35.5,27.6L35.5,27.6z M35.4,27.6C35.4,27.6,35.4,27.5,35.4,27.6
				C35.4,27.5,35.4,27.5,35.4,27.6C35.4,27.5,35.4,27.5,35.4,27.6L35.4,27.6L35.4,27.6z M35.4,27.5C35.4,27.5,35.4,27.6,35.4,27.5
				C35.4,27.6,35.4,27.6,35.4,27.5L35.4,27.5z M35.4,27.6L35.4,27.6L35.4,27.6L35.4,27.6L35.4,27.6L35.4,27.6z M35.4,27.6L35.4,27.6
				L35.4,27.6L35.4,27.6L35.4,27.6L35.4,27.6L35.4,27.6L35.4,27.6L35.4,27.6L35.4,27.6z M35.4,27.6L35.4,27.6L35.4,27.6L35.4,27.6z
				 M35.4,27.6L35.4,27.6L35.4,27.6L35.4,27.6z M35.5,27.6L35.5,27.6L35.5,27.6L35.5,27.6L35.5,27.6L35.5,27.6z M35.4,27.6
				L35.4,27.6L35.4,27.6L35.4,27.6z M35.4,27.6L35.4,27.6L35.4,27.6L35.4,27.6z M35.5,27.6L35.5,27.6L35.5,27.6L35.5,27.6L35.5,27.6
				z M35.5,27.6L35.5,27.6L35.5,27.6L35.5,27.6L35.5,27.6z M35.4,27.6L35.4,27.6C35.4,27.5,35.4,27.5,35.4,27.6L35.4,27.6L35.4,27.6
				z M35.4,27.6L35.4,27.6L35.4,27.6L35.4,27.6z M35.4,27.6L35.4,27.6L35.4,27.6L35.4,27.6z M35.4,27.6L35.4,27.6L35.4,27.6
				C35.5,27.6,35.4,27.6,35.4,27.6z M35.5,27.6L35.5,27.6C35.4,27.6,35.5,27.6,35.5,27.6L35.5,27.6L35.5,27.6z M35.5,27.6L35.5,27.6
				L35.5,27.6L35.5,27.6z M35.5,27.6L35.5,27.6L35.5,27.6L35.5,27.6L35.5,27.6L35.5,27.6z M35.5,27.6L35.5,27.6L35.5,27.6L35.5,27.6
				L35.5,27.6z M35.4,27.6L35.4,27.6L35.4,27.6L35.4,27.6L35.4,27.6C35.5,27.6,35.5,27.6,35.4,27.6L35.4,27.6
				C35.5,27.6,35.5,27.6,35.4,27.6C35.5,27.6,35.5,27.6,35.4,27.6C35.5,27.6,35.5,27.6,35.4,27.6C35.5,27.6,35.5,27.6,35.4,27.6
				C35.5,27.6,35.5,27.6,35.4,27.6L35.4,27.6C35.5,27.6,35.4,27.6,35.4,27.6L35.4,27.6L35.4,27.6L35.4,27.6L35.4,27.6L35.4,27.6
				L35.4,27.6L35.4,27.6L35.4,27.6L35.4,27.6L35.4,27.6z M35.4,27.6L35.4,27.6L35.4,27.6L35.4,27.6z M35.5,27.6L35.5,27.6L35.5,27.6
				L35.5,27.6z M35.5,27.6L35.5,27.6L35.5,27.6L35.5,27.6L35.5,27.6z M35.4,27.6L35.4,27.6L35.4,27.6L35.4,27.6
				C35.4,27.5,35.4,27.5,35.4,27.6C35.4,27.5,35.4,27.5,35.4,27.6C35.4,27.5,35.4,27.6,35.4,27.6z M35.4,27.6L35.4,27.6L35.4,27.6
				L35.4,27.6z M35.5,27.6L35.5,27.6L35.5,27.6L35.5,27.6z M35.5,27.6L35.5,27.6L35.5,27.6L35.5,27.6z M35.5,27.6L35.5,27.6
				L35.5,27.6L35.5,27.6L35.5,27.6z M50.3,34.5c1.5-3.2-4-8.9-12.2-12.8S22,17.3,20.5,20.5c-0.1,0.2-0.2,0.4-0.2,0.6l-0.9,0.1l1,3
				c-0.1,0.2-0.2,0.4-0.2,0.7l-2.1,1.8l1.2,2.2c0,0.2,0,0.5-0.1,0.7L17.5,31l1.8,1.3c0.1,0.8,0.2,1.6,0.4,2.4l-1.1,1.6l2.1,1.3
				c0.3,0.8,0.7,1.5,1.2,2.2L21,41.5l2.8,0.7c0.4,0.4,0.8,0.8,1.3,1.1l0,0c-0.7,1.5-0.2,3.3,1.2,4c1.4,0.7,3.1-0.1,3.8-1.6l0,0h0.1
				l0.9,1.4l1.2-1.1c0.7,0.1,1.3,0.1,2,0l1.6,0.7l0.8-1.1c0.6-0.1,1.3-0.3,1.9-0.6l1.6,0.6l0.5-1.5c0.5-0.3,1-0.6,1.5-0.9l1,0.1
				l0.5-1.2c0.5-0.4,1-0.8,1.4-1.3l2.3-0.3L46.6,39c0.4-0.5,0.8-1.1,1.1-1.6l2.3-0.3l-0.5-1.5C49.8,35.3,50.1,34.9,50.3,34.5z
				 M27.1,33.6c-0.3,0.6-1.1,0.8-1.8,0.4c-0.7-0.3-1.1-1.1-0.8-1.7c0.3-0.6,1.1-0.8,1.8-0.4C27.1,32.3,27.4,33,27.1,33.6z
				 M33.1,40.2c-0.3,0.6-1.2,0.9-2,0.5s-1.2-1.2-0.9-1.8c0.3-0.6,1.2-0.9,2-0.5C33,38.7,33.4,39.5,33.1,40.2z M39.9,36.3
				c-0.4,0.9-1.7,1.2-2.8,0.7c-1-0.5-1.6-1.5-1.3-2.4c1.5,0.6,2.9,1,4.3,1.3C40,36.1,40,36.2,39.9,36.3z M49.3,34.1
				c-1.4,3-8.8,2.5-16.4-1.1c-7.7-3.7-12.8-9-11.4-12s8.8-2.5,16.4,1.1C45.6,25.8,50.7,31.1,49.3,34.1z"/>
		</g>
	</g>
</g>
</svg>
