<?xml version="1.0" encoding="utf-8"?>
<!-- Generator: Adobe Illustrator 18.0.0, SVG Export Plug-In . SVG Version: 6.00 Build 0)  -->
<!DOCTYPE svg PUBLIC "-//W3C//DTD SVG 1.1//EN" "http://www.w3.org/Graphics/SVG/1.1/DTD/svg11.dtd">
<svg version="1.1" id="图层_1" xmlns="http://www.w3.org/2000/svg" xmlns:xlink="http://www.w3.org/1999/xlink" x="0px" y="0px"
	 viewBox="0 0 64 64" enable-background="new 0 0 64 64" xml:space="preserve">
<path fill-rule="evenodd" clip-rule="evenodd" fill="#9C511C" d="M32,4.1c15.5,0,28,12.5,28,27.9c0,15.4-12.5,27.9-28,27.9
	C16.5,59.9,4,47.4,4,32C4,16.6,16.5,4.1,32,4.1z"/>
<g>
	<g>
		<path fill-rule="evenodd" clip-rule="evenodd" fill="#F2E6B5" d="M50.4,35.8c-0.5-6.3-6-11.5-10.9-14.9c-4.9-3.4-12-4.7-12.9-4.4
			c-0.9,0.3-3.1,0.4-3.1,0.4s-0.4,1.6-0.1,2.4c0.3,0.7,1.3,0.8,3.5,4.1c2.2,3.4,5.8,7.3,9.1,10.5c3.3,3.2,6.3,5.5,7.4,6.5
			c1.2,0.9,1.8,2.4-0.9,2.9c-2.7,0.5-9-2.1-15.8-4.6c-6.7-2.5-9.2-4.3-10.7-5.2c-1.6-0.9-1.2-3.4-1.2-3.4s-1.1,0.7-1.4,1.4
			c-0.3,0.8,0.1,2,0.4,2.6c0.2,0.7,0.5,0.8,1.1,1.4c0.5,0.6,0.6,1.9,4.7,4.8c4,2.9,9.8,5,13.7,6c3.9,1,6.4,1.4,8.7,1
			c2.3-0.3,3.8-1.4,4.1-2.4c0.4-1,1.8-1.5,2.7-2C49.7,42.5,50.9,42.2,50.4,35.8z M29.1,38.9c7.7,3.4,13.9,3.9,14.3,2.9
			c0.4-1-6.9-5.9-10.7-9.5c-3.8-3.6-6.2-7.7-8.3-9.4c-2.1-1.7-6.5,0.4-7.5,3.1c-0.4,1-1.5,0.7-1.5,3.4
			C15.3,31.9,21.4,35.5,29.1,38.9z"/>
	</g>
</g>
</svg>
