<?xml version="1.0" encoding="utf-8"?>
<!-- Generator: Adobe Illustrator 18.0.0, SVG Export Plug-In . SVG Version: 6.00 Build 0)  -->
<!DOCTYPE svg PUBLIC "-//W3C//DTD SVG 1.1//EN" "http://www.w3.org/Graphics/SVG/1.1/DTD/svg11.dtd">
<svg version="1.1" id="图层_1" xmlns="http://www.w3.org/2000/svg" xmlns:xlink="http://www.w3.org/1999/xlink" x="0px" y="0px"
	 viewBox="0 0 64 64" enable-background="new 0 0 64 64" xml:space="preserve">
<path fill-rule="evenodd" clip-rule="evenodd" fill="#D4362A" d="M32,4.1c15.5,0,28,12.5,28,27.9c0,15.4-12.5,27.9-28,27.9
	C16.5,59.9,4,47.4,4,32C4,16.6,16.5,4.1,32,4.1z"/>
<path fill-rule="evenodd" clip-rule="evenodd" fill="#FFD5D2" d="M48,44c0.1,0.7-1.6,2.4-1.6,2.4H28.8v-4.8c7.9,0.6,7.2-3.2,7.2-3.2
	v-4.8h12C48,33.6,47.9,43.3,48,44z M36,30.4v-4.8c0,0,0.7-3.8-7.2-3.2v-4.8h17.6c0,0,1.7,1.7,1.6,2.4s0,10.4,0,10.4H36z M16,44.8
	V33.6h5.6c0,0-2.7,5.2-1.6,5.6V40h1.6c0,0,2.6-5.4,4-4.8v11.2h-8L16,44.8z M21.6,24H20v0.8c-1.1,0.4,1.6,5.6,1.6,5.6H16V19.2
	l1.6-1.6h8v11.2C24.2,29.4,21.6,24,21.6,24z M32,24.8c3.7,1.7,0.8,5.6,0.8,5.6h-4v-3.2C28.7,24.2,32,24.8,32,24.8z M32,39.2
	c0,0-3.3,0.6-3.2-2.4v-3.2h4C32.8,33.6,35.7,37.5,32,39.2z"/>
</svg>
