<?xml version="1.0" encoding="utf-8"?>
<!-- Generator: Adobe Illustrator 18.0.0, SVG Export Plug-In . SVG Version: 6.00 Build 0)  -->
<!DOCTYPE svg PUBLIC "-//W3C//DTD SVG 1.1//EN" "http://www.w3.org/Graphics/SVG/1.1/DTD/svg11.dtd">
<svg version="1.1" id="图层_1" xmlns="http://www.w3.org/2000/svg" xmlns:xlink="http://www.w3.org/1999/xlink" x="0px" y="0px"
	 viewBox="0 0 64 64" enable-background="new 0 0 64 64" xml:space="preserve">
<path fill-rule="evenodd" clip-rule="evenodd" fill="#2696E4" d="M32,4.1c15.5,0,28,12.5,28,27.9c0,15.4-12.5,27.9-28,27.9
	C16.5,59.9,4,47.4,4,32C4,16.6,16.5,4.1,32,4.1z"/>
<g>
	<g>
		<path fill="#E4FCFF" d="M24.5,23.1c-6,2.7-10,8.6-10,8.6c0,0,3,3.5,5.5,2.6l0.1,0.6c-0.3,0.1-0.6,0.2-0.9,0.2
			c-1.7,0-3.5-1.4-4.4-2.3c1.3,1.7,4.8,5.8,9.4,8C27.5,34.8,25.1,25,24.5,23.1z M20.8,32.2c-0.8,0-1.5-0.7-1.5-1.6
			c0-0.9,0.7-1.6,1.5-1.6c0.8,0,1.5,0.7,1.5,1.6C22.3,31.5,21.7,32.2,20.8,32.2z M44.1,29.7c-2.7-3-8-7.9-14.1-7.9
			c-1.7,0-3.4,0.4-4.9,1c0.5,1.8,3.2,11.8-0.4,18.2c1.7,0.7,3.5,1.2,5.3,1.2c6.5,0,12-5.5,14.5-8.4l4.9,2.9v-9.2L44.1,29.7z"/>
	</g>
</g>
</svg>
