<?xml version="1.0" encoding="utf-8"?>
<!-- Generator: Adobe Illustrator 18.0.0, SVG Export Plug-In . SVG Version: 6.00 Build 0)  -->
<!DOCTYPE svg PUBLIC "-//W3C//DTD SVG 1.1//EN" "http://www.w3.org/Graphics/SVG/1.1/DTD/svg11.dtd">
<svg version="1.1" id="图层_1" xmlns="http://www.w3.org/2000/svg" xmlns:xlink="http://www.w3.org/1999/xlink" x="0px" y="0px"
	 viewBox="0 0 64 64" enable-background="new 0 0 64 64" xml:space="preserve">
<path fill-rule="evenodd" clip-rule="evenodd" fill="#91BDF5" d="M32,0c17.7,0,32,14.3,32,32c0,17.7-14.3,32-32,32S0,49.7,0,32
	C0,14.3,14.3,0,32,0z"/>
<g>
	<g>
		<path fill-rule="evenodd" clip-rule="evenodd" fill="#FFFFFF" d="M47.2,16.7H16.8c-2.7,0-4.8,2.2-4.8,4.8v21.8
			c0,2.7,2.2,4.8,4.8,4.8h30.3c2.7,0,4.8-2.2,4.8-4.8V21.6C52,18.9,49.8,16.7,47.2,16.7z M25,40c0,0.2-0.2,0.4-0.4,0.4h-7.2
			c-0.2,0-0.4-0.2-0.4-0.4v-1.2c0-0.2,0.2-0.4,0.4-0.4h7.2c0.2,0,0.4,0.2,0.4,0.4V40z M47,26.2c0,0.2-0.2,0.4-0.4,0.4H17.4
			c-0.2,0-0.4-0.2-0.4-0.4V25c0-0.2,0.2-0.4,0.4-0.4h29.2c0.2,0,0.4,0.2,0.4,0.4V26.2z"/>
	</g>
</g>
</svg>
