<?xml version="1.0" encoding="utf-8"?>
<!-- Generator: Adobe Illustrator 18.0.0, SVG Export Plug-In . SVG Version: 6.00 Build 0)  -->
<!DOCTYPE svg PUBLIC "-//W3C//DTD SVG 1.1//EN" "http://www.w3.org/Graphics/SVG/1.1/DTD/svg11.dtd">
<svg version="1.1" id="图层_1" xmlns="http://www.w3.org/2000/svg" xmlns:xlink="http://www.w3.org/1999/xlink" x="0px" y="0px"
	 viewBox="0 0 64 64" enable-background="new 0 0 64 64" xml:space="preserve">
<path fill="#91BDF5" d="M32,0c17.7,0,32,14.3,32,32S49.7,64,32,64S0,49.7,0,32S14.3,0,32,0z"/>
<g>
	<g>
		<g>
			<path fill="#FFFFFF" d="M46.5,14.1H28.9c-2.5,0-4.6,2-4.6,4.6v2.2l-7.6,4.7c-3.8,1.9-4.4,3.9-4.8,6.7V42c0,2.1,1.7,3.8,3.8,3.8h2
				c0.5,2.7,2.8,4.8,5.6,4.8s5.2-2.1,5.6-4.8h5.9c0.5,2.7,2.8,4.8,5.6,4.8s5.2-2.1,5.6-4.8h0.3c2.5,0,4.6-2,4.6-4.6V18.7
				C51,16.1,49,14.1,46.5,14.1z M16.8,32.4h6.7c0.5,0,1-0.4,1-1v-6.7c1.1,0,1.9,0.9,1.9,1.9v5.8c0,1.1-0.9,1.9-1.9,1.9h-5.7
				C17.6,34.3,16.8,33.4,16.8,32.4z M23.4,48.9c-1.9,0-3.4-1.3-3.9-3.1h7.7C26.9,47.6,25.3,48.9,23.4,48.9z M40.6,48.9
				c-1.9,0-3.4-1.3-3.9-3.1h7.7C44,47.6,42.5,48.9,40.6,48.9z"/>
		</g>
	</g>
</g>
</svg>
