<?xml version="1.0" encoding="utf-8"?>
<!-- Generator: Adobe Illustrator 18.0.0, SVG Export Plug-In . SVG Version: 6.00 Build 0)  -->
<!DOCTYPE svg PUBLIC "-//W3C//DTD SVG 1.1//EN" "http://www.w3.org/Graphics/SVG/1.1/DTD/svg11.dtd">
<svg version="1.1" id="图层_1" xmlns="http://www.w3.org/2000/svg" xmlns:xlink="http://www.w3.org/1999/xlink" x="0px" y="0px"
	 viewBox="0 0 64 64" enable-background="new 0 0 64 64" xml:space="preserve">
<path fill-rule="evenodd" clip-rule="evenodd" fill="#91BDF5" d="M32,0c17.7,0,32,14.3,32,32c0,17.7-14.3,32-32,32S0,49.7,0,32
	C0,14.3,14.3,0,32,0z"/>
<g>
	<g>
		<path fill-rule="evenodd" clip-rule="evenodd" fill="#FFFFFF" d="M47.8,24.2H16.2c-2.3,0-4.2,1.9-4.2,4.1l4.2,20.7
			c0,2.3,1.9,4.1,4.2,4.1h23.2c2.3,0,4.2-1.9,4.2-4.1L52,28.4C52,26.1,50.1,24.2,47.8,24.2z M22.5,34.6c-1.2,0-2.1-0.9-2.1-2.1
			c0-1.1,0.9-2.1,2.1-2.1c1.2,0,2.1,0.9,2.1,2.1C24.6,33.7,23.7,34.6,22.5,34.6z M41.5,34.6c-1.2,0-2.1-0.9-2.1-2.1
			c0-1.1,0.9-2.1,2.1-2.1c1.2,0,2.1,0.9,2.1,2.1C43.6,33.7,42.6,34.6,41.5,34.6z M32.1,13.1c5.6,0,10.2,4.5,10.5,10.1h2.3
			c-0.3-6.9-5.9-12.4-12.8-12.4s-12.5,5.5-12.8,12.4h2.3C21.9,17.6,26.4,13.1,32.1,13.1z"/>
	</g>
</g>
</svg>
