<?xml version="1.0" encoding="utf-8"?>
<!-- Generator: Adobe Illustrator 18.0.0, SVG Export Plug-In . SVG Version: 6.00 Build 0)  -->
<!DOCTYPE svg PUBLIC "-//W3C//DTD SVG 1.1//EN" "http://www.w3.org/Graphics/SVG/1.1/DTD/svg11.dtd">
<svg version="1.1" id="图层_1" xmlns="http://www.w3.org/2000/svg" xmlns:xlink="http://www.w3.org/1999/xlink" x="0px" y="0px"
	 viewBox="0 0 64 64" enable-background="new 0 0 64 64" xml:space="preserve">
<path fill-rule="evenodd" clip-rule="evenodd" fill="#91BDF5" d="M32,0c17.7,0,32,14.3,32,32c0,17.7-14.3,32-32,32S0,49.7,0,32
	C0,14.3,14.3,0,32,0z"/>
<g>
	<g>
		<path fill-rule="evenodd" clip-rule="evenodd" fill="#FFFFFF" d="M43.1,19.4H19c-2.6,0-4.8,2.1-4.8,4.8v19.6
			c0,2.6,2.1,4.8,4.8,4.8h7.4l3.3,3.4c0.8,0.8,2,0.8,2.7,0l3.3-3.4h7.4c2.6,0,4.8-2.1,4.8-4.8V24.2C47.9,21.5,45.7,19.4,43.1,19.4z
			 M23.3,34.9c-0.8,0-1.4-0.7-1.4-1.5s0.6-1.5,1.4-1.5c0.8,0,1.4,0.7,1.4,1.5S24.1,34.9,23.3,34.9z M31,34.9c-0.8,0-1.4-0.7-1.4-1.5
			S30.2,32,31,32c0.8,0,1.4,0.7,1.4,1.5S31.8,34.9,31,34.9z M38.7,34.9c-0.8,0-1.4-0.7-1.4-1.5s0.6-1.5,1.4-1.5s1.4,0.7,1.4,1.5
			S39.5,34.9,38.7,34.9z M51.7,20.3c0-2.6-2.1-4.8-4.8-4.8H24.8c0,0,0,0,0,0c-0.5,0-1,0.4-1,1s0.4,1,1,1c0,0,0,0,0,0h22.6
			c1.3,0,2.4,1.1,2.4,2.4v20.5c0,0.2,0,0.3,0,0.4h0c0,0,0,0,0,0c0,0.5,0.4,1,1,1s1-0.4,1-1c0-0.1,0-0.2-0.1-0.3
			c0-0.2,0.1-0.4,0.1-0.6V20.3z"/>
	</g>
</g>
</svg>
