<?xml version="1.0" encoding="utf-8"?>
<!-- Generator: Adobe Illustrator 18.0.0, SVG Export Plug-In . SVG Version: 6.00 Build 0)  -->
<!DOCTYPE svg PUBLIC "-//W3C//DTD SVG 1.1//EN" "http://www.w3.org/Graphics/SVG/1.1/DTD/svg11.dtd">
<svg version="1.1" id="图层_1" xmlns="http://www.w3.org/2000/svg" xmlns:xlink="http://www.w3.org/1999/xlink" x="0px" y="0px"
	 viewBox="0 0 64 64" enable-background="new 0 0 64 64" xml:space="preserve">
<path fill-rule="evenodd" clip-rule="evenodd" fill="#F49F1A" d="M32,4.1c15.5,0,28,12.5,28,27.9c0,15.4-12.5,27.9-28,27.9
	C16.5,59.9,4,47.4,4,32C4,16.6,16.5,4.1,32,4.1z"/>
<g>
	<g>
		<path fill="#FCE798" d="M32,19.8c2.5,0.4,7.1,0,7.1,0l-2-2.1l2-4.1c0,0-2.5,0-3.7,3.1l0.2-3.1l-2.1,3.1L33,16.3
			c0.3-1.4,0.4-3.8-1.5-5L31.2,12c1.3,0.8,1.3,2.5,1.2,3.7l-2.2-2l0.4,3.1l-4.1-3.1l1.7,4.2l-2.7,2C25.4,19.8,29.6,19.4,32,19.8z
			 M47,32.3c0-1.7-1-3.2-2.4-3.9c0.4-0.7,0.6-1.4,0.6-2.2c0-2.4-1.9-4.4-4.3-4.4c-0.4,0-0.7,0.1-1,0.1c-0.8-0.9-2-1.6-3.3-1.6
			c-1.4,0-2.6,0.7-3.4,1.7c-0.8-1-2-1.7-3.4-1.7c-0.8,0-1.5,0.2-2.2,0.6c-0.6-0.4-1.4-0.6-2.2-0.6c-2.4,0-4.3,2-4.3,4.4c0,0,0,0,0,0
			c-2.3,0-4.2,2-4.2,4.4c0,1.1,0.4,2.1,1.1,2.9C17.4,32.8,17,33.8,17,35c0,1.7,0.9,3.2,2.3,3.9c0,0.2-0.1,0.3-0.1,0.5
			c0,2.1,1.5,3.9,3.4,4.3c0,0,0,0.1,0,0.1c0,2.4,1.9,4.4,4.3,4.4c0,2.4,1.9,4.4,4.3,4.4c1.8,0,3.3-1.1,4-2.7c0.1,0,0.2,0,0.3,0
			c2.4,0,4.3-2,4.3-4.4c0-0.1,0-0.2,0-0.3c1.7-0.6,2.8-2.2,2.8-4.1c0-0.1,0-0.2,0-0.4c1.5-0.7,2.6-2.2,2.6-4.1c0-0.3,0-0.6-0.1-0.8
			C46.3,35.1,47,33.8,47,32.3z M32.1,26.4c0.2,1.8,1.7,3.2,3.5,3.2c1.7,0,3.1-1.2,3.4-2.9c0,0.1,0,0.3,0,0.4c0,2-1.6,3.6-3.5,3.6
			c-1.9,0-3.5-1.6-3.5-3.6C32,26.9,32,26.7,32.1,26.4z M32.5,38.7c0,0.1,0,0.2,0,0.3c0,1.4-1.1,2.5-2.4,2.5c-1.3,0-2.4-1.1-2.4-2.5
			c0-0.2,0-0.3,0-0.5c0.1,1.2,1.1,2.2,2.4,2.2C31.3,40.7,32.2,39.8,32.5,38.7z M25.6,34c0-0.2,0-0.3,0-0.5c0.1,1.2,1.1,2.2,2.4,2.2
			c1.2,0,2.1-0.9,2.3-2c0,0.1,0,0.2,0,0.3c0,1.4-1.1,2.5-2.4,2.5C26.7,36.5,25.6,35.4,25.6,34z M24.3,26.4c0.2,1.8,1.7,3.2,3.5,3.2
			c1.7,0,3.1-1.2,3.4-2.9c0,0.1,0,0.3,0,0.4c0,2-1.6,3.6-3.5,3.6c-1.9,0-3.5-1.6-3.5-3.6C24.2,26.9,24.2,26.7,24.3,26.4z M18.7,29
			c0-0.1,0-0.3,0-0.4c0.1,1.1,1,2,2.2,2c1.1,0,1.9-0.8,2.1-1.8c0,0.1,0,0.2,0,0.3c0,1.2-1,2.2-2.2,2.2C19.6,31.2,18.7,30.2,18.7,29z
			 M20,34.6c0-0.1,0-0.2,0-0.4c0.1,0.9,0.9,1.7,1.8,1.7c0.9,0,1.7-0.7,1.8-1.5c0,0.1,0,0.2,0,0.2c0,1.1-0.8,1.9-1.9,1.9
			C20.8,36.5,20,35.6,20,34.6z M23.2,41.7c-1.3,0-2.4-1.1-2.4-2.5c0-0.2,0-0.3,0-0.5c0.1,1.2,1.1,2.2,2.4,2.2c1.2,0,2.1-0.9,2.3-2
			c0,0.1,0,0.2,0,0.3C25.6,40.6,24.5,41.7,23.2,41.7z M27.1,45.8c-1.3,0-2.4-1.1-2.4-2.5c0-0.2,0-0.3,0-0.5c0.1,1.2,1.1,2.2,2.4,2.2
			c1.2,0,2.1-0.9,2.3-2c0,0.1,0,0.2,0,0.3C29.5,44.7,28.5,45.8,27.1,45.8z M31.2,49.8c-1.3,0-2.4-1.1-2.4-2.5c0-0.2,0-0.3,0-0.5
			c0.1,1.2,1.1,2.2,2.4,2.2c1.2,0,2.1-0.9,2.3-2c0,0.1,0,0.2,0,0.3C33.6,48.7,32.5,49.8,31.2,49.8z M33.1,35.5c0-0.2,0-0.3,0-0.5
			c0.1,1.2,1.1,2.2,2.4,2.2c1.2,0,2.1-0.9,2.3-2c0,0.1,0,0.2,0,0.3c0,1.4-1.1,2.5-2.4,2.5C34.2,37.9,33.1,36.8,33.1,35.5z
			 M37.9,44.4c-1.3,0-2.4-1.1-2.4-2.5c0-0.2,0-0.3,0-0.5c0.1,1.2,1.1,2.2,2.4,2.2c1.2,0,2.1-0.9,2.3-2c0,0.1,0,0.2,0,0.3
			C40.3,43.3,39.2,44.4,37.9,44.4z M41.4,39.4c-1.3,0-2.4-1.1-2.4-2.5c0-0.2,0-0.3,0-0.5c0.1,1.2,1.1,2.2,2.4,2.2
			c1.2,0,2.1-0.9,2.3-2c0,0.1,0,0.2,0,0.3C43.7,38.3,42.7,39.4,41.4,39.4z M42.7,34.2c-1.3,0-2.4-1.1-2.4-2.5c0-0.2,0-0.3,0-0.5
			c0.1,1.2,1.1,2.2,2.4,2.2c1.2,0,2.1-0.9,2.3-2c0,0.1,0,0.2,0,0.3C45.1,33.1,44,34.2,42.7,34.2z"/>
	</g>
</g>
</svg>
